<?xml version="1.0" encoding="utf-8"?>
<!-- Generator: Adobe Illustrator 25.1.0, SVG Export Plug-In . SVG Version: 6.00 Build 0)  -->
<svg version="1.1" id="Слой_1" xmlns="http://www.w3.org/2000/svg" xmlns:xlink="http://www.w3.org/1999/xlink" x="0px" y="0px"
	 viewBox="0 0 512 512" style="enable-background:new 0 0 512 512;" xml:space="preserve">
<g>
	<path d="M272.66,133.91c2.49,2.17,3.74,4.42,3.74,6.75c0,4.5-3.42,7.09-10.24,7.75c-12.08,20.34-23.04,48.17-32.88,83.5
		c-10.37,37.17-17.13,74.17-20.28,111c-0.92,10.5-0.13,18.5,2.36,24c0.91,2,1.38,4.09,1.38,6.25c0,5-2.04,7.5-6.1,7.5
		c-1.97,0-4.4-0.84-7.29-2.5c-8.54-4.66-13.52-7.75-14.96-9.25c-3.15-3-4.73-7.66-4.73-14c0-4.66,0.72-11.75,2.17-21.25
		c9.18-56.66,20.48-101.91,33.87-135.75c-12.87,18.17-28.16,38.84-45.88,62c-1.71,1.84-3.68,2.75-5.91,2.75
		c-4.47,0-6.69-2.41-6.69-7.25c0-2.5,1.11-4.91,3.35-7.25c23.63-24,45.55-59.16,65.77-105.5c1.97-4.5,3.41-7.08,4.33-7.75
		c1.18-0.66,3.35-0.25,6.5,1.25c3.15-8.66,7.09-13,11.81-13C257.56,123.16,264.12,126.74,272.66,133.91z"/>
	<path d="M387.85,133.91c2.49,2.17,3.74,4.42,3.74,6.75c0,4.5-3.42,7.09-10.24,7.75c-12.08,20.34-23.04,48.17-32.88,83.5
		c-10.37,37.17-17.13,74.17-20.28,111c-0.92,10.5-0.13,18.5,2.36,24c0.91,2,1.38,4.09,1.38,6.25c0,5-2.04,7.5-6.1,7.5
		c-1.97,0-4.4-0.84-7.29-2.5c-8.54-4.66-13.52-7.75-14.96-9.25c-3.15-3-4.73-7.66-4.73-14c0-4.66,0.72-11.75,2.17-21.25
		c9.18-56.66,20.48-101.91,33.87-135.75c-12.87,18.17-28.16,38.84-45.88,62c-1.71,1.84-3.68,2.75-5.91,2.75
		c-4.47,0-6.69-2.41-6.69-7.25c0-2.5,1.11-4.91,3.35-7.25c23.63-24,45.55-59.16,65.77-105.5c1.97-4.5,3.41-7.08,4.33-7.75
		c1.18-0.66,3.35-0.25,6.5,1.25c3.15-8.66,7.09-13,11.81-13C372.75,123.16,379.31,126.74,387.85,133.91z"/>
</g>
</svg>
