<?xml version="1.0" encoding="utf-8"?>
<!-- Generator: Adobe Illustrator 25.1.0, SVG Export Plug-In . SVG Version: 6.00 Build 0)  -->
<svg version="1.1" id="Слой_1" xmlns="http://www.w3.org/2000/svg" xmlns:xlink="http://www.w3.org/1999/xlink" x="0px" y="0px"
	 viewBox="0 0 512 512" style="enable-background:new 0 0 512 512;" xml:space="preserve">
<g>
</g>
<g>
</g>
<g>
	<path d="M237.97,123.67c3.16,2.17,4.75,4.42,4.75,6.75c0,4.5-4.34,7.09-13,7.75c-15.34,20.34-29.25,48.17-41.75,83.5
		c-13.17,37.17-21.75,74.17-25.75,111c-1.17,10.5-0.17,18.5,3,24c1.16,2,1.75,4.09,1.75,6.25c0,5-2.59,7.5-7.75,7.5
		c-2.5,0-5.59-0.84-9.25-2.5c-10.84-4.66-17.17-7.75-19-9.25c-4-3-6-7.66-6-14c0-4.66,0.91-11.75,2.75-21.25
		c11.66-56.66,26-101.91,43-135.75c-16.34,18.17-35.75,38.84-58.25,62c-2.17,1.84-4.67,2.75-7.5,2.75c-5.67,0-8.5-2.41-8.5-7.25
		c0-2.5,1.41-4.91,4.25-7.25c30-24,57.83-59.16,83.5-105.5c2.5-4.5,4.33-7.08,5.5-7.75c1.5-0.66,4.25-0.25,8.25,1.25
		c4-8.66,9-13,15-13C218.8,112.92,227.14,116.5,237.97,123.67z"/>
	<path d="M431.97,394.17c-1.17,3.83-3.75,6-7.75,6.5c-2.84,0-5.59-2.17-8.25-6.5c-0.67-1.84-1.42-3.67-2.25-5.5
		c-1.84-2.34-6.34-4.59-13.5-6.75c-44.84-14.17-86.42-21.25-124.75-21.25c-6,0-11.84,0.25-17.5,0.75c-2.84,3-7.5,7.91-14,14.75
		c-2.67,2.66-7.75,3.16-15.25,1.5c-7.34-2.67-10.75-7.09-10.25-13.25c0.84-12,2.71-22.25,5.62-30.75
		c2.91-8.5,9.29-12.75,19.12-12.75c1.83,0,11.66,0.84,29.5,2.5c36.16-29.16,68.75-61.75,97.75-97.75c15-18.66,22.5-38.66,22.5-60
		c0-6.66-0.75-11.16-2.25-13.5c-2.5-3.66-7.75-5.5-15.75-5.5c-3,0-6.34,0.25-10,0.75c-20.34,2.34-43.25,13.42-68.75,33.25
		c-6,4.67-9,9.5-9,14.5c0-0.33,0.83,4.17,2.5,13.5c0.83,5.34-0.17,8-3,8c-2.67,0-5.67-1.58-9-4.75c-4-4-9.09-9.83-15.25-17.5
		c-4.84-7.16-7.25-12.91-7.25-17.25c0-4.5,2.58-8.66,7.75-12.5c50-36,88.75-53.58,116.25-52.75c6.5,0.34,13.16,6.5,20,18.5
		c13.5-3,19.33-4.5,17.5-4.5c7.33,0,11,10.25,11,30.75c0,17.84-1,29.84-3,36c-4,12.34-14.59,27.25-31.75,44.75
		c-33.84,34.67-66.42,64.59-97.75,89.75c41,2.84,82.5,12.67,124.5,29.5c10.33,4.17,15.5,11,15.5,20.5
		C435.22,380.5,434.14,386.17,431.97,394.17z"/>
</g>
</svg>
