<?xml version="1.0" encoding="utf-8"?>
<!-- Generator: Adobe Illustrator 25.1.0, SVG Export Plug-In . SVG Version: 6.00 Build 0)  -->
<svg version="1.1" id="Слой_1" xmlns="http://www.w3.org/2000/svg" xmlns:xlink="http://www.w3.org/1999/xlink" x="0px" y="0px"
	 viewBox="0 0 512 512" style="enable-background:new 0 0 512 512;" xml:space="preserve">
<g>
	<path d="M424.83,139.08c0.59,6.24-0.35,10.84-2.83,13.78c-0.24,0.24-3.18,2.29-8.83,6.18c-5.18,3.54-23.92,35.93-56.19,97.18
		c-32.98,62.67-52.71,104.19-59.19,124.57c-1.88,5.06-3.71,10.13-5.48,15.2c-1.65,4.47-2.36,8.25-2.12,11.31
		c0.35,5.06-0.35,7.6-2.12,7.6c-1.18,0-2.89-1-5.12-3c-5.18-4.48-10.13-10.95-14.84-19.44c-1.88-3.41-2.83-6.24-2.83-8.48
		c0-3.89,2.29-9.89,6.89-18.03c20.14-35.81,31.63-56.19,34.45-61.14c13.9-23.8,43.41-72.97,88.52-147.54
		c-17.2-3.41-38.29-4.65-63.25-3.71c-15.08,0.59-26.21,8.42-33.39,23.5c-1.88,4.12-4.48,6.18-7.77,6.18c-2.71,0-4.06-1.71-4.06-5.12
		c0-0.82,0.11-1.77,0.35-2.83c3.3-15.08,7.13-28.21,11.49-39.41c2.83-7.19,8.25-10.78,16.26-10.78c3.54,0,8.25,0.47,14.14,1.41
		c16.26,2.36,40.52,5.48,72.8,9.37c2.12-5.66,3.41-8.72,3.89-9.18c1.53-2.12,4.3-3.18,8.31-3.18c4.12,0,6.83,0.88,8.12,2.65
		C423.3,127.95,424.24,132.25,424.83,139.08z"/>
</g>
<g>
	<path d="M242.7,144.35c2.86,2.17,4.3,4.42,4.3,6.75c0,4.5-3.93,7.09-11.78,7.75c-13.9,20.34-26.5,48.17-37.83,83.5
		c-11.93,37.17-19.71,74.17-23.33,111c-1.06,10.5-0.15,18.5,2.72,24c1.05,2,1.59,4.09,1.59,6.25c0,5-2.35,7.5-7.02,7.5
		c-2.27,0-5.06-0.84-8.38-2.5c-9.82-4.66-15.56-7.75-17.21-9.25c-3.62-3-5.44-7.66-5.44-14c0-4.66,0.82-11.75,2.49-21.25
		c10.56-56.66,23.56-101.91,38.96-135.75c-14.8,18.17-32.39,38.84-52.78,62c-1.97,1.84-4.23,2.75-6.8,2.75
		c-5.14,0-7.7-2.41-7.7-7.25c0-2.5,1.28-4.91,3.85-7.25c27.18-24,52.4-59.16,75.66-105.5c2.27-4.5,3.92-7.08,4.98-7.75
		c1.36-0.66,3.85-0.25,7.47,1.25c3.62-8.66,8.15-13,13.59-13C225.33,133.6,232.87,137.18,242.7,144.35z"/>
</g>
</svg>
