<?xml version="1.0" encoding="utf-8"?>
<!-- Generator: Adobe Illustrator 25.1.0, SVG Export Plug-In . SVG Version: 6.00 Build 0)  -->
<svg version="1.1" id="Слой_1" xmlns="http://www.w3.org/2000/svg" xmlns:xlink="http://www.w3.org/1999/xlink" x="0px" y="0px"
	 viewBox="0 0 512 512" style="enable-background:new 0 0 512 512;" xml:space="preserve">
<g>
	<path d="M379.6,401.6c-1.2,4-4,6.3-8.2,6.9c-3,0-5.9-2.3-8.7-6.9c-0.7-1.9-1.5-3.9-2.4-5.8c-1.9-2.5-6.7-4.8-14.3-7.1
		c-47.3-15-91.3-22.4-131.7-22.4c-6.3,0-12.5,0.3-18.5,0.8c-3,3.2-7.9,8.4-14.8,15.6c-2.8,2.8-8.2,3.3-16.1,1.6
		c-7.8-2.8-11.4-7.5-10.8-14c0.9-12.7,2.9-23.5,5.9-32.5c3.1-9,9.8-13.5,20.2-13.5c1.9,0,12.3,0.9,31.1,2.6
		c38.2-30.8,72.6-65.2,103.2-103.2c15.8-19.7,23.8-40.8,23.8-63.4c0-7-0.8-11.8-2.4-14.3c-2.6-3.9-8.2-5.8-16.6-5.8
		c-3.2,0-6.7,0.3-10.6,0.8c-21.5,2.5-45.7,14.2-72.6,35.1c-6.3,4.9-9.5,10-9.5,15.3c0-0.3,0.9,4.4,2.6,14.3c0.9,5.6-0.2,8.4-3.2,8.4
		c-2.8,0-6-1.7-9.5-5c-4.2-4.2-9.6-10.4-16.1-18.5c-5.1-7.6-7.7-13.6-7.7-18.2c0-4.8,2.7-9.1,8.2-13.2c52.8-38,93.7-56.6,122.7-55.7
		c6.9,0.4,13.9,6.9,21.1,19.5c14.3-3.2,20.4-4.8,18.5-4.8c7.7,0,11.6,10.8,11.6,32.5c0,18.8-1.1,31.5-3.2,38
		c-4.2,13-15.4,28.8-33.5,47.3c-35.7,36.6-70.1,68.2-103.2,94.8c43.3,3,87.1,13.4,131.5,31.1c10.9,4.4,16.4,11.6,16.4,21.6
		C383,387.2,381.9,393.2,379.6,401.6z"/>
</g>
</svg>
