<?xml version="1.0" encoding="utf-8"?>
<!-- Generator: Adobe Illustrator 25.1.0, SVG Export Plug-In . SVG Version: 6.00 Build 0)  -->
<svg version="1.1" id="Слой_1" xmlns="http://www.w3.org/2000/svg" xmlns:xlink="http://www.w3.org/1999/xlink" x="0px" y="0px"
	 viewBox="0 0 512 512" style="enable-background:new 0 0 512 512;" xml:space="preserve">
<g>
	<path d="M355.76,270.15c3.66,6,5.5,12.46,5.5,19.39c0,10.62-4.09,20.08-12.25,28.39c-24,24.15-52.59,45.84-85.75,65.08
		c-36.34,21.23-65.92,31.85-88.75,31.85c-10.83,0-21.16-3.62-31-10.85c-2.16-1.7-9.83-8.77-23-21.23c-2.5-2.62-3.75-5.08-3.75-7.38
		c0-3.69,2.25-5.54,6.75-5.54c2,0,3.92,0.54,5.75,1.62c14.34,7.85,25.75,11.77,34.25,11.77c10.67,0,26.08-3.62,46.25-10.85
		c24.66-8.93,48.75-21.27,72.25-37.04s40-30.73,49.5-44.88c4.66-6.61,7-12.61,7-18c0-7.23-3.84-13-11.5-17.31
		c-18.17-10.46-38.67-15.69-61.5-15.69c-4.34,0-8.75,0.16-13.25,0.46c-2.5,0.16-6.12,0.73-10.88,1.74c-4.75,1.01-8.04,1.5-9.88,1.5
		c-4.34,0-6.84-1.85-7.5-5.54c-1.34-7.07-2-15.46-2-25.15c0-4.3,4.25-8.38,12.75-12.23c24.83-10.92,41.58-19,50.25-24.23
		c14.83-8.77,26.58-19.23,35.25-31.39c3.33-4.76,5-8.77,5-12c0-5.69-4.75-8.54-14.25-8.54c-10.5,0-22.42,3.16-35.75,9.46
		c-26.5,12.92-41,24.31-43.5,34.16c-1.17,4.31-3.25,6.46-6.25,6.46c-1.84,0-3.5-1.07-5-3.23c-8.84-11.84-13.25-19.3-13.25-22.39
		c0-5.22,3.75-10.39,11.25-15.46c24.33-16.3,48.91-28.07,73.75-35.31c6.33-1.85,11.5-2.77,15.5-2.77c5.16,0,9.25,1.7,12.25,5.08
		c2.66,4.15,5.33,8.23,8,12.23c15,9.39,22.5,19.31,22.5,29.77c0,7.24-4.09,14.16-12.25,20.77c-19.5,15.85-46.67,33.55-81.5,53.08
		c38.83,3.69,69.91,13.01,93.25,27.92c7.33,4.62,11,8.93,11,12.92C361.01,258.93,359.26,263.39,355.76,270.15z"/>
</g>
</svg>
