<?xml version="1.0" encoding="utf-8"?>
<!-- Generator: Adobe Illustrator 25.1.0, SVG Export Plug-In . SVG Version: 6.00 Build 0)  -->
<svg version="1.1" id="Слой_1" xmlns="http://www.w3.org/2000/svg" xmlns:xlink="http://www.w3.org/1999/xlink" x="0px" y="0px"
	 viewBox="0 0 512 512" style="enable-background:new 0 0 512 512;" xml:space="preserve">
<g>
	<path d="M365.1,303.05c1,4.67,1.5,7.67,1.5,9c0,5.67-5.09,9.34-15.25,11c-11,1.67-23.84,2.5-38.5,2.5
		c-5.17,24.33-8.59,47.25-10.25,68.75c-0.34,5.16-0.09,8.38,0.75,9.62c0.83,1.25,1.83,2.46,3,3.62c0.5,0.83,0.75,1.75,0.75,2.75
		c0,5-2.59,7.5-7.75,7.5c-1.17,0-2.25-0.17-3.25-0.5c-6.17-2.34-13.67-6.09-22.5-11.25c-3-3.34-4.5-6.92-4.5-10.75
		c0-4.5,5.08-27.59,15.25-69.25c-50.84,1.5-88.92,1.17-114.25-1c-1.67,4.5-3.17,7.17-4.5,8c-1.5,0.84-5.17,0.75-11-0.25
		c-4-0.83-6.66-2.58-8-5.25c-1.66-3.33-2.75-10.5-3.25-21.5c-0.33-9.16,3.25-14.58,10.75-16.25c12.83-11.5,24.83-23.41,36-35.75
		c26.5-29.33,46.58-58.25,60.25-86.75l-14.25-22.5c-0.67-1.16-1-2.25-1-3.25c0-4.5,3.41-6.33,10.25-5.5c2.33,0.34,5.58-2.5,9.75-8.5
		c8.16-12.16,18.08-27.91,29.75-47.25c2.16-4.5,5.41-6.75,9.75-6.75c2.5,0,8.91,2.59,19.25,7.75c3.83,2,5.75,4.5,5.75,7.5
		c0,2.5-1.17,6.67-3.5,12.5c-12.34,30.17-32.67,65.25-61,105.25c-24,34.17-45.34,60.5-64,79c-2.5,3-0.67,4.92,5.5,5.75
		c38.16,4.67,70.25,5.67,96.25,3c12.5-46.66,25.66-85.75,39.5-117.25c4-9.16,8.5-14.66,13.5-16.5c0.83-0.16,5.25-0.25,13.25-0.25
		c5.16,0,7.75,0.84,7.75,2.5c0,1.17-1.59,3.34-4.75,6.5c-6.17,6.34-13.67,22.84-22.5,49.5c-8,23.5-14.67,47.84-20,73
		c15.5,0,24.91-3.58,28.25-10.75c0.33-1.66,2.16-3.41,5.5-5.25c3.83,0,6.25,1.75,7.25,5.25C362.1,288.39,363.6,295.72,365.1,303.05z
		"/>
</g>
</svg>
