<?xml version="1.0" encoding="utf-8"?>
<!-- Generator: Adobe Illustrator 25.1.0, SVG Export Plug-In . SVG Version: 6.00 Build 0)  -->
<svg version="1.1" id="Слой_1" xmlns="http://www.w3.org/2000/svg" xmlns:xlink="http://www.w3.org/1999/xlink" x="0px" y="0px"
	 viewBox="0 0 512 512" style="enable-background:new 0 0 512 512;" xml:space="preserve">
<g>
	<path d="M373.45,116.19c0,6.32-3.31,9.48-9.93,9.48c-1.81,0-3.76-0.23-5.87-0.68c-43.93-9.33-75.36-13.99-94.32-13.99
		c-4.96,0-8.2,1.73-9.7,5.19c-16.1,38.21-26.1,64.98-30.01,80.33c0.45,0.75,0.9,1.58,1.35,2.48c1.2-0.15,3.38-1.13,6.54-2.93
		c39.41-21.66,66.56-32.49,81.46-32.49c11.43,0,19.4,5.87,23.92,17.6c11.28,4.82,18.88,8.88,22.79,12.18
		c4.96,4.37,7.45,9.85,7.45,16.47c0,4.66-1.13,10.68-3.38,18.05c-10.23,31.89-28.43,64.68-54.61,98.38
		c-22.42,28.73-46.93,53.93-73.56,75.59c-24.82,20-43.25,30.61-55.28,31.82c-6.02,0.45-11.58-1.58-16.7-6.09
		c-11.73-10.38-19.48-18.58-23.24-24.6c-1.2-1.96-1.81-3.84-1.81-5.64c0-4.21,1.96-6.32,5.87-6.32c1.35,0,2.79,0.45,4.29,1.35
		c8.88,5.56,16.78,8.35,23.69,8.35c10.23,0,26.85-8.95,49.87-26.85c24.52-19.11,46.78-41.29,66.79-66.56
		c23.62-29.63,38.96-57.61,46.03-83.94c1.2-4.51,1.8-8.57,1.8-12.18c0-13.24-6.99-19.86-20.98-19.86c-3.91,0-8.2,0.68-12.86,2.03
		c-21.06,5.87-44.45,18.35-70.17,37.46c-0.45,0.15-1.88,2.14-4.29,5.98c-2.41,3.84-4.59,5.75-6.54,5.75c-1.35,0-2.79-0.9-4.29-2.71
		c-6.17-7.22-11.73-17.07-16.7-29.56c-1.96-4.96-1.35-10.61,1.81-16.92c15.94-31.89,25.65-58.29,29.11-79.2
		c0-0.45-1.47-3.76-4.4-9.93c-2.93-6.17-4.4-10.98-4.4-14.44c0-1.35,0.3-2.86,0.9-4.51c2.26-5.42,10.15-7,23.69-4.74
		c38.81,6.47,72.8,9.7,101.99,9.7c4.06-8.12,7.9-12.11,11.51-11.96c3.46,0.15,5.76,0.53,6.88,1.13c1.13,0.6,1.92,2.48,2.37,5.64
		C372.47,96.78,373.45,107.16,373.45,116.19z"/>
</g>
</svg>
