<?xml version="1.0" encoding="utf-8"?>
<!-- Generator: Adobe Illustrator 25.1.0, SVG Export Plug-In . SVG Version: 6.00 Build 0)  -->
<svg version="1.1" id="Слой_1" xmlns="http://www.w3.org/2000/svg" xmlns:xlink="http://www.w3.org/1999/xlink" x="0px" y="0px"
	 viewBox="0 0 512 512" style="enable-background:new 0 0 512 512;" xml:space="preserve">
<g>
	<path d="M348.92,112.69c0.65,6.88-0.39,11.94-3.11,15.18c-0.26,0.26-3.5,2.53-9.73,6.81c-5.71,3.89-26.34,39.57-61.88,107.02
		c-36.32,69.01-58.05,114.73-65.18,137.18c-2.08,5.58-4.09,11.15-6.03,16.73c-1.82,4.93-2.6,9.08-2.33,12.45
		c0.39,5.58-0.39,8.37-2.33,8.37c-1.3,0-3.18-1.1-5.64-3.31c-5.71-4.93-11.16-12.06-16.34-21.4c-2.07-3.76-3.11-6.88-3.11-9.34
		c0-4.28,2.53-10.9,7.59-19.85c22.18-39.44,34.83-61.88,37.94-67.32c15.31-26.2,47.8-80.36,97.48-162.47
		c-18.94-3.76-42.16-5.12-69.66-4.09c-16.61,0.65-28.86,9.28-36.78,25.88c-2.08,4.54-4.93,6.81-8.56,6.81
		c-2.99,0-4.48-1.88-4.48-5.64c0-0.91,0.13-1.95,0.39-3.11c3.63-16.6,7.85-31.07,12.65-43.39c3.11-7.91,9.08-11.87,17.9-11.87
		c3.89,0,9.08,0.52,15.57,1.56c17.9,2.6,44.62,6.03,80.17,10.31c2.33-6.23,3.76-9.6,4.28-10.12c1.69-2.33,4.73-3.5,9.15-3.5
		c4.54,0,7.52,0.97,8.95,2.92C347.24,100.43,348.27,105.17,348.92,112.69z"/>
</g>
</svg>
