<?xml version="1.0" encoding="utf-8"?>
<!-- Generator: Adobe Illustrator 25.1.0, SVG Export Plug-In . SVG Version: 6.00 Build 0)  -->
<svg version="1.1" id="Слой_1" xmlns="http://www.w3.org/2000/svg" xmlns:xlink="http://www.w3.org/1999/xlink" x="0px" y="0px"
	 viewBox="0 0 512 512" style="enable-background:new 0 0 512 512;" xml:space="preserve">
<g>
	<path d="M367.56,146.99c-9.23,56.04-31.58,115.06-67.06,177.06c-35.48,62.01-64.82,93.69-88.02,95.05
		c-11.4,0.68-25.37-5.84-41.93-19.54c-2.04-1.76-3.05-3.66-3.05-5.7c0-3.39,2.17-5.09,6.51-5.09c0.81,0,1.7,0.13,2.65,0.41
		c13.16,2.17,22.66,2.17,28.49,0c23.74-9.36,50.34-40.09,79.78-92.2c29.99-53.05,47.69-101.83,53.12-146.33
		c0.27-2.71,0.41-5.29,0.41-7.73c0-10.18-2.48-18.18-7.43-24.02c-4.95-5.83-11.23-8.75-18.83-8.75c-8.28,0-16.35,3.39-24.22,10.18
		c-15.33,13.03-29.38,29.04-42.13,48.03c-15.87,23.75-25.03,46.07-27.48,66.96c-1.22,10.31,2.71,15.47,11.8,15.47
		c4.2,0,9.29-1.29,15.26-3.87c14.52-6.24,30.8-15.67,48.84-28.29c2.58-1.76,4.88-2.65,6.92-2.65c2.71,0,4.07,1.15,4.07,3.46
		c0,2.31-1.43,4.95-4.27,7.94c-20.08,21.44-35.41,35.48-46,42.13c-5.43,3.39-10.52,5.09-15.26,5.09c-6.92,0-15.81-4.2-26.66-12.62
		c-4.75-1.36-9.43-2.65-14.04-3.87c-6.51-2.71-9.77-8.68-9.77-17.91c0-3.93,0.54-8.48,1.63-13.64
		c4.34-20.76,15.13-44.23,32.36-70.42c16.28-24.83,31.75-42.47,46.4-52.92c9.63-6.92,17.43-10.38,23.41-10.38
		c3.93,0,9.77,1.63,17.5,4.88c0.54-0.95,1.56-1.63,3.05-2.04c4.2-0.95,10.92,0.41,20.15,4.07c13.84,5.56,23.17,10.65,27.98,15.26
		c4.81,4.61,7.22,10.58,7.22,17.91C368.99,136.48,368.51,141.16,367.56,146.99z"/>
</g>
</svg>
