<?xml version="1.0" encoding="utf-8"?>
<!-- Generator: Adobe Illustrator 25.1.0, SVG Export Plug-In . SVG Version: 6.00 Build 0)  -->
<svg version="1.1" id="Слой_1" xmlns="http://www.w3.org/2000/svg" xmlns:xlink="http://www.w3.org/1999/xlink" x="0px" y="0px"
	 viewBox="0 0 512 512" style="enable-background:new 0 0 512 512;" xml:space="preserve">
<g>
	<path d="M344.1,113.2c3.2,2.6,4.9,5.3,4.9,8.2c0,5.4-4.4,8.6-13.3,9.4C320,155.4,305.8,189,293,231.8
		c-13.5,45-22.2,89.8-26.3,134.3c-1.2,12.7-0.2,22.4,3.1,29c1.2,2.4,1.8,5,1.8,7.6c0,6.1-2.6,9.1-7.9,9.1c-2.6,0-5.7-1-9.5-3
		c-11.1-5.6-17.6-9.4-19.4-11.2c-4.1-3.6-6.1-9.3-6.1-16.9c0-5.6,0.9-14.2,2.8-25.7c11.9-68.6,26.6-123.3,44-164.3
		c-16.7,22-36.5,47-59.5,75c-2.2,2.2-4.8,3.3-7.7,3.3c-5.8,0-8.7-2.9-8.7-8.8c0-3,1.4-5.9,4.3-8.8c30.7-29,59.1-71.6,85.4-127.7
		c2.6-5.4,4.4-8.6,5.6-9.4c1.5-0.8,4.3-0.3,8.4,1.5c4.1-10.5,9.2-15.7,15.3-15.7C324.5,100.2,333.1,104.5,344.1,113.2z"/>
</g>
</svg>
