<?xml version="1.0" encoding="utf-8"?>
<!-- Generator: Adobe Illustrator 25.1.0, SVG Export Plug-In . SVG Version: 6.00 Build 0)  -->
<svg version="1.1" id="Слой_1" xmlns="http://www.w3.org/2000/svg" xmlns:xlink="http://www.w3.org/1999/xlink" x="0px" y="0px"
	 viewBox="0 0 512 512" style="enable-background:new 0 0 512 512;" xml:space="preserve">
<g>
	<path d="M243.13,127.88c3.16,2.17,4.75,4.42,4.75,6.75c0,4.5-4.34,7.09-13,7.75c-15.34,20.34-29.25,48.17-41.75,83.5
		c-13.17,37.17-21.75,74.17-25.75,111c-1.17,10.5-0.17,18.5,3,24c1.16,2,1.75,4.09,1.75,6.25c0,5-2.59,7.5-7.75,7.5
		c-2.5,0-5.59-0.84-9.25-2.5c-10.84-4.66-17.17-7.75-19-9.25c-4-3-6-7.66-6-14c0-4.66,0.91-11.75,2.75-21.25
		c11.66-56.66,26-101.91,43-135.75c-16.34,18.17-35.75,38.84-58.25,62c-2.17,1.84-4.67,2.75-7.5,2.75c-5.67,0-8.5-2.41-8.5-7.25
		c0-2.5,1.41-4.91,4.25-7.25c30-24,57.83-59.16,83.5-105.5c2.5-4.5,4.33-7.08,5.5-7.75c1.5-0.66,4.25-0.25,8.25,1.25
		c4-8.66,9-13,15-13C223.96,117.13,232.29,120.72,243.13,127.88z"/>
	<path d="M435.13,153.63c0,52.84-9.42,102.67-28.25,149.5c-20.17,49.84-43.17,74.75-69,74.75c-20.67,0-40-3.92-58-11.75
		c-7-3.16-10.09-5.91-9.25-8.25c-12.34-8-20.17-14.08-23.5-18.25c-5.34-6.83-8-16.66-8-29.5c0-7.5,0.83-17,2.5-28.5
		c3.66-25.83,13.58-55.5,29.75-89c15.5-31.83,30.08-54.25,43.75-67.25c6.66-6.16,12.83-9.25,18.5-9.25c2.5,0,13.25,4.5,32.25,13.5
		c2.66-0.33,9.16-1.16,19.5-2.5c8.5-1,15.08-1.5,19.75-1.5C425.13,125.63,435.13,134.97,435.13,153.63z M402.38,172.13
		c0-18.83-8.09-28.25-24.25-28.25c-4.17,0-11.17,0.67-21,2c-4.84-1.66-7.84-2.33-9-2c-1.84,0-8,4.92-18.5,14.75
		c-16,15-29.84,38.84-41.5,71.5c-11.34,31.5-17,60.42-17,86.75c0,8.5,3.5,16.59,10.5,24.25c6.33,7.17,14.08,12.42,23.25,15.75
		c4.83,1.67,9.33,2.5,13.5,2.5c11,0,22.25-6.33,33.75-19c13.66-15,25.5-39.41,35.5-73.25C397.46,233.8,402.38,202.13,402.38,172.13z
		"/>
</g>
</svg>
