<?xml version="1.0" encoding="utf-8"?>
<!-- Generator: Adobe Illustrator 25.1.0, SVG Export Plug-In . SVG Version: 6.00 Build 0)  -->
<svg version="1.1" id="Слой_1" xmlns="http://www.w3.org/2000/svg" xmlns:xlink="http://www.w3.org/1999/xlink" x="0px" y="0px"
	 viewBox="0 0 512 512" style="enable-background:new 0 0 512 512;" xml:space="preserve">
<g>
	<path d="M419.43,261.42c3.16,5.6,4.74,11.64,4.74,18.1c0,9.91-3.52,18.75-10.56,26.5c-20.69,22.55-45.33,42.81-73.91,60.77
		c-31.32,19.82-56.82,29.74-76.5,29.74c-9.34,0-18.24-3.38-26.72-10.13c-1.87-1.58-8.47-8.19-19.82-19.82
		c-2.15-2.44-3.23-4.74-3.23-6.9c0-3.45,1.94-5.17,5.82-5.17c1.72,0,3.38,0.5,4.96,1.51c12.36,7.33,22.19,10.99,29.52,10.99
		c9.2,0,22.48-3.38,39.86-10.13c21.26-8.33,42.02-19.86,62.27-34.58c20.25-14.72,34.48-28.69,42.66-41.91
		c4.02-6.17,6.03-11.78,6.03-16.81c0-6.75-3.31-12.14-9.91-16.16c-15.66-9.77-33.33-14.65-53.01-14.65c-3.74,0-7.54,0.15-11.42,0.43
		c-2.15,0.15-5.28,0.68-9.37,1.62c-4.09,0.94-6.93,1.4-8.51,1.4c-3.74,0-5.89-1.72-6.46-5.17c-1.15-6.61-1.72-14.44-1.72-23.49
		c0-4.02,3.66-7.83,10.99-11.42c21.4-10.2,35.84-17.74,43.31-22.62c12.78-8.19,22.91-17.96,30.38-29.31
		c2.87-4.45,4.31-8.19,4.31-11.21c0-5.31-4.09-7.97-12.28-7.97c-9.05,0-19.32,2.95-30.81,8.83c-22.84,12.07-35.34,22.7-37.49,31.89
		c-1.01,4.02-2.8,6.03-5.39,6.03c-1.58,0-3.02-1-4.31-3.02c-7.62-11.06-11.42-18.03-11.42-20.9c0-4.88,3.23-9.7,9.7-14.44
		c20.97-15.23,42.16-26.21,63.57-32.97c5.46-1.72,9.91-2.59,13.36-2.59c4.45,0,7.97,1.58,10.56,4.74c2.3,3.88,4.6,7.69,6.9,11.42
		c12.93,8.76,19.39,18.03,19.39,27.8c0,6.75-3.52,13.22-10.56,19.39c-16.81,14.8-40.22,31.32-70.25,49.56
		c33.47,3.45,60.26,12.14,80.37,26.07c6.32,4.31,9.48,8.33,9.48,12.07C423.96,250.93,422.45,255.1,419.43,261.42z"/>
</g>
<g>
	<path d="M249.72,127.28c3.16,2.17,4.75,4.42,4.75,6.75c0,4.5-4.34,7.09-13,7.75c-15.34,20.34-29.25,48.17-41.75,83.5
		c-13.17,37.17-21.75,74.17-25.75,111c-1.17,10.5-0.17,18.5,3,24c1.16,2,1.75,4.09,1.75,6.25c0,5-2.59,7.5-7.75,7.5
		c-2.5,0-5.59-0.84-9.25-2.5c-10.84-4.66-17.17-7.75-19-9.25c-4-3-6-7.66-6-14c0-4.66,0.91-11.75,2.75-21.25
		c11.66-56.66,26-101.91,43-135.75c-16.34,18.17-35.75,38.84-58.25,62c-2.17,1.84-4.67,2.75-7.5,2.75c-5.67,0-8.5-2.41-8.5-7.25
		c0-2.5,1.41-4.91,4.25-7.25c30-24,57.83-59.16,83.5-105.5c2.5-4.5,4.33-7.08,5.5-7.75c1.5-0.66,4.25-0.25,8.25,1.25
		c4-8.66,9-13,15-13C230.56,116.53,238.89,120.12,249.72,127.28z"/>
</g>
</svg>
