<?xml version="1.0" encoding="utf-8"?>
<!-- Generator: Adobe Illustrator 25.1.0, SVG Export Plug-In . SVG Version: 6.00 Build 0)  -->
<svg version="1.1" id="Слой_1" xmlns="http://www.w3.org/2000/svg" xmlns:xlink="http://www.w3.org/1999/xlink" x="0px" y="0px"
	 viewBox="0 0 512 512" style="enable-background:new 0 0 512 512;" xml:space="preserve">
<g>
	<path d="M404.07,286.15c0.8,3.72,1.2,6.11,1.2,7.18c0,4.52-4.06,7.45-12.16,8.77c-8.77,1.33-19.01,1.99-30.7,1.99
		c-4.12,19.41-6.85,37.68-8.17,54.83c-0.27,4.12-0.07,6.68,0.6,7.68c0.66,1,1.46,1.96,2.39,2.89c0.4,0.66,0.6,1.4,0.6,2.19
		c0,3.99-2.06,5.98-6.18,5.98c-0.93,0-1.79-0.13-2.59-0.4c-4.92-1.86-10.9-4.85-17.94-8.97c-2.39-2.66-3.59-5.52-3.59-8.57
		c0-3.59,4.05-22,12.16-55.23c-40.54,1.2-70.91,0.93-91.11-0.8c-1.33,3.59-2.53,5.72-3.59,6.38c-1.2,0.67-4.12,0.6-8.77-0.2
		c-3.19-0.66-5.31-2.06-6.38-4.19c-1.33-2.66-2.19-8.37-2.59-17.15c-0.26-7.31,2.59-11.63,8.57-12.96
		c10.23-9.17,19.8-18.67,28.71-28.51c21.13-23.39,37.15-46.45,48.05-69.18l-11.37-17.94c-0.53-0.93-0.8-1.79-0.8-2.59
		c0-3.59,2.72-5.05,8.17-4.39c1.86,0.27,4.45-1.99,7.78-6.78c6.51-9.7,14.42-22.26,23.73-37.68c1.73-3.59,4.32-5.38,7.78-5.38
		c1.99,0,7.11,2.06,15.35,6.18c3.06,1.6,4.59,3.59,4.59,5.98c0,1.99-0.93,5.32-2.79,9.97c-9.84,24.06-26.05,52.04-48.65,83.94
		c-19.14,27.25-36.16,48.25-51.04,63c-1.99,2.39-0.53,3.92,4.39,4.59c30.44,3.72,56.02,4.52,76.76,2.39
		c9.97-37.21,20.47-68.39,31.5-93.51c3.19-7.31,6.78-11.69,10.77-13.16c0.66-0.13,4.19-0.2,10.57-0.2c4.12,0,6.18,0.67,6.18,1.99
		c0,0.93-1.26,2.66-3.79,5.18c-4.92,5.05-10.9,18.21-17.94,39.48c-6.38,18.74-11.7,38.15-15.95,58.22c12.36,0,19.87-2.86,22.53-8.57
		c0.26-1.33,1.73-2.72,4.39-4.19c3.06,0,4.98,1.4,5.78,4.19C401.68,274.45,402.87,280.3,404.07,286.15z"/>
</g>
<g>
	<path d="M247.23,125.34c3.16,2.17,4.75,4.42,4.75,6.75c0,4.5-4.34,7.09-13,7.75c-15.34,20.34-29.25,48.17-41.75,83.5
		c-13.17,37.17-21.75,74.17-25.75,111c-1.17,10.5-0.17,18.5,3,24c1.16,2,1.75,4.09,1.75,6.25c0,5-2.59,7.5-7.75,7.5
		c-2.5,0-5.59-0.84-9.25-2.5c-10.84-4.66-17.17-7.75-19-9.25c-4-3-6-7.66-6-14c0-4.66,0.91-11.75,2.75-21.25
		c11.66-56.66,26-101.91,43-135.75c-16.34,18.17-35.75,38.84-58.25,62c-2.17,1.84-4.67,2.75-7.5,2.75c-5.67,0-8.5-2.41-8.5-7.25
		c0-2.5,1.41-4.91,4.25-7.25c30-24,57.83-59.16,83.5-105.5c2.5-4.5,4.33-7.08,5.5-7.75c1.5-0.66,4.25-0.25,8.25,1.25
		c4-8.66,9-13,15-13C228.06,114.59,236.39,118.17,247.23,125.34z"/>
</g>
</svg>
