<?xml version="1.0" encoding="utf-8"?>
<!-- Generator: Adobe Illustrator 25.1.0, SVG Export Plug-In . SVG Version: 6.00 Build 0)  -->
<svg version="1.1" id="Слой_1" xmlns="http://www.w3.org/2000/svg" xmlns:xlink="http://www.w3.org/1999/xlink" x="0px" y="0px"
	 viewBox="0 0 512 512" style="enable-background:new 0 0 512 512;" xml:space="preserve">
<g>
	<path d="M405.69,144.11c0,5.37-2.81,8.05-8.43,8.05c-1.53,0-3.2-0.19-4.98-0.58c-37.31-7.92-64.02-11.88-80.12-11.88
		c-4.22,0-6.97,1.47-8.24,4.41c-13.67,32.46-22.17,55.2-25.49,68.24c0.38,0.64,0.77,1.34,1.15,2.11c1.02-0.13,2.88-0.96,5.56-2.49
		c33.48-18.4,56.54-27.6,69.19-27.6c9.71,0,16.48,4.98,20.32,14.95c9.58,4.09,16.04,7.54,19.36,10.35
		c4.22,3.71,6.33,8.37,6.33,13.99c0,3.96-0.96,9.07-2.88,15.33c-8.69,27.09-24.15,54.95-46.38,83.57
		c-19.04,24.41-39.87,45.81-62.49,64.21c-21.08,16.99-36.74,26-46.96,27.03c-5.11,0.38-9.84-1.34-14.18-5.18
		c-9.97-8.82-16.55-15.78-19.74-20.89c-1.02-1.66-1.53-3.26-1.53-4.79c0-3.58,1.66-5.37,4.98-5.37c1.15,0,2.37,0.38,3.64,1.15
		c7.54,4.73,14.25,7.09,20.13,7.09c8.69,0,22.81-7.6,42.36-22.81c20.83-16.23,39.74-35.08,56.74-56.54
		c20.06-25.17,33.09-48.94,39.1-71.3c1.02-3.83,1.53-7.28,1.53-10.35c0-11.24-5.94-16.87-17.83-16.87c-3.32,0-6.97,0.57-10.93,1.72
		c-17.89,4.98-37.76,15.59-59.61,31.82c-0.38,0.13-1.6,1.82-3.64,5.08c-2.05,3.26-3.9,4.89-5.56,4.89c-1.15,0-2.37-0.77-3.64-2.3
		c-5.24-6.13-9.97-14.5-14.18-25.11c-1.66-4.22-1.15-9.01,1.53-14.38c13.54-27.09,21.79-49.51,24.73-67.28
		c0-0.38-1.25-3.19-3.74-8.43c-2.49-5.24-3.74-9.33-3.74-12.27c0-1.15,0.25-2.43,0.77-3.83c1.92-4.6,8.62-5.94,20.12-4.03
		c32.97,5.5,61.84,8.24,86.64,8.24c3.45-6.9,6.71-10.28,9.78-10.16c2.94,0.13,4.89,0.45,5.85,0.96c0.96,0.51,1.63,2.11,2.01,4.79
		C404.85,127.63,405.69,136.44,405.69,144.11z"/>
</g>
<g>
	<path d="M226.47,129.11c2.64,2.17,3.96,4.42,3.96,6.75c0,4.5-3.61,7.09-10.84,7.75c-12.78,20.34-24.38,48.17-34.8,83.5
		c-10.98,37.17-18.13,74.17-21.47,111c-0.97,10.5-0.14,18.5,2.5,24c0.97,2,1.46,4.09,1.46,6.25c0,5-2.16,7.5-6.46,7.5
		c-2.08,0-4.66-0.84-7.71-2.5c-9.03-4.66-14.31-7.75-15.84-9.25c-3.33-3-5-7.66-5-14c0-4.66,0.76-11.75,2.29-21.25
		c9.72-56.66,21.67-101.91,35.85-135.75c-13.62,18.17-29.8,38.84-48.56,62c-1.81,1.84-3.89,2.75-6.25,2.75
		c-4.73,0-7.09-2.41-7.09-7.25c0-2.5,1.18-4.91,3.54-7.25c25.01-24,48.21-59.16,69.61-105.5c2.08-4.5,3.61-7.08,4.58-7.75
		c1.25-0.66,3.54-0.25,6.88,1.25c3.33-8.66,7.5-13,12.5-13C210.49,118.36,217.44,121.95,226.47,129.11z"/>
</g>
</svg>
