<?xml version="1.0" encoding="utf-8"?>
<!-- Generator: Adobe Illustrator 25.1.0, SVG Export Plug-In . SVG Version: 6.00 Build 0)  -->
<svg version="1.1" id="Слой_1" xmlns="http://www.w3.org/2000/svg" xmlns:xlink="http://www.w3.org/1999/xlink" x="0px" y="0px"
	 viewBox="0 0 512 512" style="enable-background:new 0 0 512 512;" xml:space="preserve">
<g>
</g>
<g>
	<path d="M401.14,276.25c-3.45,18.41-11.76,38.79-24.92,61.16c-12.4,20.96-24.99,37.07-37.77,48.32
		c-8.18,7.29-17.71,10.93-28.57,10.93c-7.03,0-13.61-1.41-19.75-4.22c-29.4-2.68-44.1-12.78-44.1-30.29
		c0-40.39,7.86-81.49,23.58-123.28c13.29-35.4,29.91-66.08,49.85-92.03c18.41-24.16,33.23-36.36,44.48-36.62
		c8.05-0.25,19.56,5.24,34.51,16.49c1.92,1.41,2.88,2.94,2.88,4.6c0,2.94-1.6,4.03-4.79,3.26c-7.03-1.66-15.66-1.15-25.88,1.53
		c-7.93,2.05-19.56,13.42-34.89,34.13c-17.38,23.52-31.76,49.79-43.14,78.8c-13.93,35.79-20.9,70.75-20.9,104.88
		c0,15.6,5.18,24.8,15.53,27.61c2.17,0.51,4.41,0.77,6.71,0.77c8.31,0,16.81-3.26,25.5-9.78c10.22-7.67,21.73-23.07,34.51-46.21
		c12.78-23.13,20.71-42.95,23.77-59.44c0.51-3.32,0.77-6.13,0.77-8.44c0-6.52-2.43-9.78-7.29-9.78c-2.43,0-6.97,1.09-13.61,3.26
		c-15.85,5.11-31,12.08-45.44,20.9c-1.15,0.64-2.37,0.96-3.64,0.96c-4.09,0-6.14-1.85-6.14-5.56c0-1.66,0.89-3.19,2.68-4.6
		c15.21-11.76,31.12-21.15,47.74-28.18c5.11-2.17,9.65-3.26,13.61-3.26c6.39,0,12.46,3.96,18.21,11.89
		c8.69,3.45,13.42,5.43,14.19,5.94c2.94,2.05,4.41,5.43,4.41,10.16C403.25,263.6,402.54,268.97,401.14,276.25z"/>
</g>
<g>
	<path d="M250.23,129.21c2.48,2.41,3.72,4.92,3.72,7.52c0,5.01-3.39,7.89-10.17,8.63c-12,22.65-22.89,53.65-32.67,93
		c-10.3,41.4-17.02,82.61-20.15,123.63c-0.91,11.69-0.13,20.6,2.35,26.73c0.91,2.23,1.37,4.55,1.37,6.96c0,5.57-2.02,8.35-6.06,8.35
		c-1.96,0-4.37-0.93-7.24-2.78c-8.48-5.19-13.43-8.63-14.87-10.3c-3.13-3.34-4.69-8.54-4.69-15.59c0-5.2,0.71-13.09,2.15-23.67
		c9.13-63.11,20.35-113.51,33.65-151.2c-12.78,20.24-27.97,43.26-45.58,69.06c-1.7,2.04-3.65,3.06-5.87,3.06
		c-4.44,0-6.65-2.69-6.65-8.07c0-2.79,1.11-5.47,3.33-8.08c23.48-26.73,45.25-65.9,65.34-117.51c1.96-5.01,3.39-7.89,4.3-8.63
		c1.17-0.74,3.33-0.28,6.46,1.39c3.13-9.65,7.04-14.48,11.74-14.48C235.23,117.23,241.75,121.23,250.23,129.21z"/>
</g>
</svg>
