<?xml version="1.0" encoding="utf-8"?>
<!-- Generator: Adobe Illustrator 25.1.0, SVG Export Plug-In . SVG Version: 6.00 Build 0)  -->
<svg version="1.1" id="Слой_1" xmlns="http://www.w3.org/2000/svg" xmlns:xlink="http://www.w3.org/1999/xlink" x="0px" y="0px"
	 viewBox="0 0 512 512" style="enable-background:new 0 0 512 512;" xml:space="preserve">
<g>
	<path d="M400.2,172.01c-7.85,47.65-26.85,97.83-57.02,150.55c-30.17,52.72-55.12,79.66-74.84,80.82
		c-9.69,0.58-21.57-4.96-35.65-16.61c-1.73-1.5-2.6-3.12-2.6-4.85c0-2.88,1.85-4.33,5.54-4.33c0.69,0,1.44,0.11,2.25,0.35
		c11.19,1.84,19.27,1.84,24.23,0c20.19-7.96,42.8-34.09,67.83-78.39c25.5-45.11,40.55-86.58,45.17-124.42
		c0.23-2.31,0.35-4.5,0.35-6.58c0-8.65-2.11-15.46-6.32-20.42c-4.21-4.96-9.55-7.44-16.01-7.44c-7.04,0-13.9,2.88-20.59,8.65
		c-13.04,11.08-24.98,24.69-35.82,40.84c-13.5,20.19-21.29,39.17-23.36,56.93c-1.04,8.77,2.31,13.15,10.04,13.15
		c3.57,0,7.9-1.09,12.98-3.29c12.34-5.31,26.19-13.32,41.53-24.05c2.19-1.5,4.15-2.25,5.88-2.25c2.31,0,3.46,0.98,3.46,2.94
		c0,1.96-1.21,4.21-3.63,6.75c-17.08,18.23-30.11,30.17-39.11,35.82c-4.62,2.88-8.94,4.33-12.98,4.33
		c-5.88,0-13.44-3.57-22.67-10.73c-4.04-1.15-8.02-2.25-11.94-3.29c-5.54-2.31-8.31-7.38-8.31-15.23c0-3.34,0.46-7.21,1.38-11.59
		c3.69-17.65,12.86-37.61,27.52-59.88c13.84-21.11,27-36.11,39.46-44.99c8.19-5.88,14.82-8.83,19.9-8.83
		c3.34,0,8.31,1.38,14.88,4.15c0.46-0.81,1.33-1.38,2.6-1.73c3.57-0.81,9.29,0.35,17.13,3.46c11.77,4.73,19.7,9.06,23.79,12.98
		c4.09,3.92,6.14,9,6.14,15.23C401.41,163.07,401,167.05,400.2,172.01z"/>
</g>
<g>
	<path d="M238.95,141.28c2.62,2.17,3.94,4.42,3.94,6.75c0,4.5-3.6,7.09-10.78,7.75c-12.72,20.34-24.26,48.17-34.63,83.5
		c-10.92,37.17-18.04,74.17-21.36,111c-0.97,10.5-0.14,18.5,2.49,24c0.97,2,1.45,4.09,1.45,6.25c0,5-2.15,7.5-6.43,7.5
		c-2.07,0-4.63-0.84-7.67-2.5c-8.99-4.66-14.24-7.75-15.76-9.25c-3.32-3-4.98-7.66-4.98-14c0-4.66,0.76-11.75,2.28-21.25
		c9.67-56.66,21.56-101.91,35.66-135.75c-13.55,18.17-29.65,38.84-48.31,62c-1.8,1.84-3.87,2.75-6.22,2.75
		c-4.7,0-7.05-2.41-7.05-7.25c0-2.5,1.17-4.91,3.53-7.25c24.88-24,47.97-59.16,69.25-105.5c2.07-4.5,3.59-7.08,4.56-7.75
		c1.24-0.66,3.52-0.25,6.84,1.25c3.32-8.66,7.46-13,12.44-13C223.06,130.53,229.97,134.12,238.95,141.28z"/>
</g>
</svg>
