<?xml version="1.0" encoding="utf-8"?>
<!-- Generator: Adobe Illustrator 25.1.0, SVG Export Plug-In . SVG Version: 6.00 Build 0)  -->
<svg version="1.1" id="Слой_1" xmlns="http://www.w3.org/2000/svg" xmlns:xlink="http://www.w3.org/1999/xlink" x="0px" y="0px"
	 viewBox="0 0 512 512" style="enable-background:new 0 0 512 512;" xml:space="preserve">
<g>
	<path d="M258.99,380.92c-0.98,3.2-3.13,5.01-6.47,5.42c-2.37,0-4.67-1.81-6.88-5.42c-0.56-1.54-1.19-3.06-1.88-4.59
		c-1.54-1.95-5.29-3.83-11.27-5.63c-37.42-11.83-72.12-17.73-104.11-17.73c-5.01,0-9.88,0.21-14.6,0.63
		c-2.37,2.5-6.26,6.6-11.68,12.31c-2.23,2.22-6.47,2.64-12.73,1.25c-6.13-2.23-8.97-5.92-8.55-11.06
		c0.7-10.01,2.26-18.57,4.69-25.66c2.43-7.09,7.75-10.64,15.96-10.64c1.53,0,9.73,0.7,24.62,2.09
		c30.18-24.34,57.37-51.53,81.58-81.58c12.52-15.57,18.78-32.26,18.78-50.07c0-5.56-0.63-9.31-1.88-11.27
		c-2.09-3.05-6.47-4.59-13.14-4.59c-2.5,0-5.29,0.21-8.35,0.63c-16.97,1.95-36.09,11.2-57.37,27.75c-5.01,3.9-7.51,7.93-7.51,12.1
		c0-0.28,0.69,3.48,2.09,11.27c0.69,4.46-0.14,6.68-2.5,6.68c-2.23,0-4.73-1.32-7.51-3.96c-3.34-3.34-7.59-8.2-12.73-14.6
		c-4.04-5.98-6.05-10.77-6.05-14.4c0-3.76,2.15-7.23,6.47-10.43c41.73-30.04,74.07-44.71,97.02-44.02
		c5.42,0.28,10.98,5.42,16.69,15.44c11.27-2.5,16.13-3.76,14.6-3.76c6.12,0,9.18,8.55,9.18,25.66c0,14.89-0.83,24.9-2.5,30.04
		c-3.34,10.3-12.18,22.74-26.5,37.35c-28.24,28.93-55.43,53.9-81.58,74.9c34.22,2.37,68.85,10.57,103.9,24.62
		c8.62,3.48,12.94,9.18,12.94,17.11C261.71,369.52,260.8,374.25,258.99,380.92z"/>
	<path d="M444.05,176.67c0,44.1-7.86,85.68-23.58,124.76c-16.83,41.59-36.03,62.38-57.58,62.38c-17.25,0-33.38-3.27-48.4-9.81
		c-5.84-2.64-8.42-4.93-7.72-6.88c-10.3-6.68-16.83-11.75-19.61-15.23c-4.46-5.7-6.68-13.9-6.68-24.62c0-6.26,0.69-14.19,2.09-23.78
		c3.05-21.56,11.33-46.32,24.83-74.27c12.94-26.56,25.1-45.27,36.51-56.12c5.56-5.14,10.71-7.72,15.44-7.72
		c2.09,0,11.06,3.76,26.91,11.27c2.22-0.28,7.64-0.97,16.27-2.09c7.09-0.83,12.58-1.25,16.48-1.25
		C435.71,153.3,444.05,161.09,444.05,176.67z M416.72,192.11c0-15.71-6.75-23.58-20.24-23.58c-3.48,0-9.32,0.56-17.53,1.67
		c-4.04-1.39-6.54-1.94-7.51-1.67c-1.54,0-6.68,4.11-15.44,12.31c-13.35,12.52-24.9,32.41-34.63,59.67
		c-9.46,26.29-14.19,50.42-14.19,72.4c0,7.09,2.92,13.85,8.76,20.24c5.28,5.98,11.75,10.37,19.4,13.14
		c4.03,1.39,7.79,2.09,11.27,2.09c9.18,0,18.57-5.28,28.17-15.86c11.4-12.52,21.28-32.89,29.63-61.13
		C412.62,243.57,416.72,217.15,416.72,192.11z"/>
</g>
</svg>
